<?xml version="1.0" standalone="no"?>
<!DOCTYPE svg PUBLIC "-//W3C//DTD SVG 20010904//EN"
 "http://www.w3.org/TR/2001/REC-SVG-20010904/DTD/svg10.dtd">
<svg version="1.0" xmlns="http://www.w3.org/2000/svg"
 width="1500.000000pt" height="1500.000000pt" viewBox="0 0 1500.000000 1500.000000"
 preserveAspectRatio="xMidYMid meet">
<metadata>
Created by potrace 1.11, written by Peter Selinger 2001-2013
</metadata>
<g transform="translate(0.000000,1500.000000) scale(0.100000,-0.100000)"
fill="#000000" stroke="none">
<path d="M4165 9385 c-144 -24 -158 -27 -184 -37 -14 -5 -28 -9 -31 -9 -36 3
-227 -69 -355 -134 -178 -91 -299 -179 -446 -325 -280 -278 -439 -583 -503
-960 -21 -121 -28 -407 -12 -510 51 -347 179 -656 375 -904 233 -297 636 -542
1005 -612 12 -2 32 -6 46 -9 113 -24 185 -30 365 -30 243 0 348 15 535 76 177
58 332 139 498 261 406 300 658 741 711 1248 8 74 6 356 -2 395 -3 11 -8 42
-11 69 -49 363 -247 747 -521 1009 -63 60 -212 173 -290 219 -190 113 -375
183 -625 234 -151 32 -422 41 -555 19z m340 -270 c57 -26 259 -123 585 -282
124 -61 293 -143 375 -182 83 -40 166 -81 185 -91 l35 -19 1 -95 c0 -53 -2
-96 -5 -96 -3 0 -184 88 -401 196 -645 320 -803 396 -840 401 -28 4 -49 -3
-107 -36 -87 -49 -301 -153 -688 -334 -49 -23 -173 -83 -275 -134 l-185 -92
-5 26 c-3 14 -4 58 -2 98 l3 72 52 23 c29 13 205 99 392 191 379 185 515 251
655 315 52 25 106 51 119 58 27 15 31 14 106 -19z m-465 -721 c60 -17 145 -58
155 -74 14 -23 25 -7 25 35 l0 45 595 0 595 0 0 -79 0 -78 -182 -259 c-338
-482 -608 -875 -608 -886 0 -2 145 -3 323 -3 l322 0 2 145 c1 80 2 151 2 158
1 8 25 12 85 12 l83 0 -1 -242 -1 -242 -540 -3 c-297 -2 -605 -4 -685 -5 -297
-3 -362 12 -512 113 l-57 39 -3 -62 -3 -62 -72 -1 c-40 -1 -77 1 -83 5 -7 4
-9 92 -8 261 l3 254 70 0 c39 0 75 -1 81 -3 6 -2 12 -24 12 -49 2 -77 31 -141
92 -203 70 -71 134 -101 226 -108 127 -8 243 48 279 136 33 77 14 208 -36 255
-32 30 -135 72 -259 107 -328 91 -401 138 -453 294 -26 77 -19 235 14 306 41
87 105 143 224 192 67 27 223 29 315 2z m1649 -1699 c-1 -42 -6 -78 -10 -81
-7 -4 -2256 -8 -2466 -5 l-33 1 0 80 0 80 1255 0 1256 0 -2 -75z"/>
<path d="M3776 8220 c-61 -24 -84 -44 -107 -95 -44 -95 -9 -191 85 -239 28
-14 120 -44 205 -66 284 -74 346 -106 420 -215 54 -80 74 -149 74 -260 l1
-101 27 31 c14 16 65 86 112 155 47 69 95 139 107 155 138 192 440 630 440
639 0 3 -128 6 -285 6 l-285 0 0 -130 0 -130 -175 0 -175 0 0 54 c0 51 -3 57
-48 104 -26 27 -72 62 -102 78 -47 24 -68 28 -150 30 -74 2 -106 -1 -144 -16z"/>
<path d="M7049 9377 c-117 -40 -198 -112 -247 -217 -22 -46 -26 -70 -26 -150
-2 -209 83 -315 353 -442 239 -113 306 -148 361 -189 165 -123 210 -367 94
-513 -31 -39 -47 -51 -117 -90 -146 -82 -374 -69 -523 30 -69 46 -150 136
-190 212 -3 6 -94 -40 -91 -46 80 -169 204 -275 382 -327 80 -24 249 -28 340
-9 153 32 275 116 327 226 75 159 63 345 -31 482 -70 101 -166 162 -504 320
-227 106 -291 186 -289 362 1 112 55 189 166 241 54 24 73 28 161 28 94 0 105
-2 167 -33 63 -31 81 -47 162 -147 l24 -29 41 27 c22 15 41 31 41 35 -1 19
-76 106 -125 145 -86 67 -179 99 -305 104 -91 3 -114 1 -171 -20z"/>
<path d="M10170 9374 c-6 -14 -119 -297 -251 -627 -453 -1130 -438 -1091 -421
-1098 12 -4 71 -5 92 0 3 1 34 75 70 166 l65 165 471 0 c366 0 474 -3 481 -12
5 -7 29 -65 52 -128 44 -119 58 -154 71 -180 5 -11 23 -15 62 -15 l55 0 -13
45 c-14 46 -98 255 -267 665 -52 127 -152 376 -222 555 -70 179 -138 348 -150
375 -12 28 -28 65 -35 83 -15 40 -46 43 -60 6z m125 -439 c48 -126 144 -369
212 -539 68 -169 122 -311 119 -314 -8 -7 -836 -8 -847 -1 -11 6 13 72 151
414 125 310 163 408 218 557 26 70 50 124 53 120 3 -4 46 -110 94 -237z"/>
<path d="M11290 8522 l0 -878 48 1 c46 1 47 1 49 35 3 48 6 1082 4 1250 -1 74
-2 153 -1 175 l1 40 17 -25 c50 -73 291 -387 476 -620 250 -316 605 -774 641
-829 26 -38 60 -58 70 -40 7 11 6 1729 -1 1740 -2 4 -25 8 -49 7 -41 0 -45 -3
-46 -27 -1 -56 -1 -1223 1 -1339 1 -68 0 -125 -2 -127 -2 -2 -55 66 -118 152
-63 85 -120 160 -126 166 -29 33 -231 292 -411 527 -112 146 -211 275 -221
286 -9 12 -80 103 -157 203 -88 114 -146 181 -157 181 -17 0 -18 -45 -18 -878z"/>
<path d="M8174 9366 c-2 -6 -3 -396 -1 -866 l2 -855 525 0 525 0 3 48 c3 43 1
47 -20 48 -13 0 -216 1 -451 1 -236 1 -440 3 -453 6 l-24 4 0 257 0 256 408 0
407 0 2 48 c1 30 -3 47 -10 48 -7 0 -190 1 -409 1 l-396 1 1 456 2 456 451 3
451 2 2 49 1 48 -506 0 c-368 1 -507 -2 -510 -11z"/>
<path d="M9130 7538 c-138 -23 -254 -106 -319 -228 -39 -73 -52 -128 -52 -209
1 -245 179 -434 418 -445 98 -4 180 21 264 81 l47 33 -2 167 -1 168 -158 0
c-163 0 -179 -3 -172 -40 2 -11 4 -22 4 -25 1 -4 56 -6 124 -6 l122 1 3 -117
3 -117 -43 -24 c-85 -49 -166 -62 -254 -42 -275 63 -373 426 -170 629 124 124
302 138 452 35 37 -25 46 -28 64 -17 17 11 35 38 28 43 -2 0 -21 15 -43 31
-89 67 -213 99 -315 82z"/>
<path d="M7446 7528 c-13 -39 -156 -448 -255 -725 l-50 -143 37 0 37 0 64 179
64 179 138 -1 138 0 42 -116 c93 -260 80 -236 123 -239 29 -3 37 0 34 10 -3 7
-33 92 -68 188 -34 96 -86 243 -115 325 -29 83 -69 195 -88 250 -33 96 -36
100 -66 103 -19 2 -33 -2 -35 -10z m92 -281 c28 -79 52 -147 52 -150 0 -4 -49
-7 -110 -7 -60 0 -110 1 -110 3 0 1 21 61 46 132 25 72 48 138 51 148 3 9 8
17 12 17 3 0 30 -65 59 -143z"/>
<path d="M7965 7103 l0 -438 40 0 40 0 1 350 c1 193 2 354 3 359 0 6 25 -28
55 -75 106 -164 179 -276 294 -454 118 -180 118 -180 157 -183 l40 -3 0 441 0
440 -40 0 -40 0 0 -360 c0 -198 -1 -360 -2 -360 -2 0 -33 46 -70 103 -92 142
-224 343 -305 466 -37 57 -68 107 -68 111 0 17 -40 40 -71 40 l-34 0 0 -437z"/>
<path d="M9945 7523 c-4 -10 -49 -137 -100 -283 -51 -146 -110 -310 -130 -365
-20 -55 -45 -126 -55 -157 l-18 -58 37 0 36 0 63 179 64 178 138 0 139 1 20
-57 c72 -206 102 -286 110 -294 4 -4 22 -7 39 -5 l30 3 -95 270 c-79 226 -131
371 -205 578 -8 21 -16 27 -38 27 -17 0 -31 -7 -35 -17z m52 -165 c6 -18 29
-85 52 -148 22 -63 41 -116 41 -117 0 -2 -49 -3 -110 -3 -60 0 -110 2 -110 5
0 2 20 60 44 127 24 68 47 133 51 146 9 31 20 28 32 -10z"/>
<path d="M10485 7100 l0 -440 37 0 c35 0 38 3 39 28 1 15 1 177 1 360 0 182 2
332 3 332 2 0 31 -42 64 -92 129 -197 230 -353 316 -487 89 -139 90 -140 128
-141 28 0 37 4 38 18 0 9 1 206 1 437 l1 420 -39 0 -39 0 -2 -250 c-1 -137 -2
-299 -2 -360 l-1 -110 -57 90 c-32 50 -137 212 -234 360 l-177 270 -38 3 -39
3 0 -441z"/>
<path d="M11349 7528 c-1 -13 0 -844 1 -863 0 -7 88 -10 253 -10 l252 0 0 35
0 35 -213 2 c-118 1 -216 4 -220 7 -4 5 -6 91 -3 194 l1 27 186 0 c114 0 188
4 193 10 4 5 7 21 7 35 l-1 25 -189 2 c-104 2 -191 5 -194 7 -3 4 -6 343 -3
419 1 16 18 17 220 17 l219 0 0 35 0 35 -254 0 c-196 0 -254 -3 -255 -12z"/>
<path d="M12048 7521 c-2 -9 -4 -205 -3 -436 l0 -419 33 -2 c37 -2 34 -28 34
239 l1 187 51 0 c224 2 369 0 373 -4 3 -3 6 -98 7 -213 l1 -208 33 -1 32 -1 0
436 0 437 -34 -4 -34 -4 0 -156 c-1 -87 -1 -169 -1 -183 l-1 -26 -212 1 -213
1 -1 160 c-1 88 -2 170 -3 181 -1 27 -57 40 -63 15z"/>
<path d="M6720 7475 l0 -30 195 0 c113 0 195 -3 195 -9 0 -8 -164 -343 -366
-748 l-64 -128 2965 0 2965 0 0 29 0 28 -2897 1 c-1594 0 -2909 1 -2922 1 -17
1 -21 4 -14 14 22 27 443 867 436 868 -4 1 -117 2 -250 3 l-243 1 0 -30z"/>
<path d="M6703 6492 l-23 -3 0 -260 0 -259 23 0 c23 0 23 1 22 121 l-1 121 41
-44 c22 -23 72 -78 110 -121 61 -67 75 -78 98 -75 l28 3 -38 40 c-107 113
-184 205 -172 206 8 1 33 3 57 4 149 12 191 183 61 251 -25 13 -157 23 -206
16z m187 -57 c34 -17 58 -60 52 -91 -6 -41 -46 -66 -116 -73 -99 -10 -101 -9
-100 90 1 46 2 85 3 87 4 10 137 -1 161 -13z"/>
<path d="M7060 6492 l-25 -3 1 -254 c0 -140 3 -258 7 -261 5 -5 174 -8 285 -5
15 1 22 7 22 21 0 19 -7 20 -134 20 l-134 0 1 108 1 108 113 -1 c111 -1 113
-1 113 22 0 23 -2 23 -113 23 l-114 0 0 90 0 90 134 0 c132 0 134 0 131 22 -3
21 -7 22 -133 22 -71 1 -141 0 -155 -2z"/>
<path d="M8390 6490 c-4 -3 -8 -121 -8 -262 l0 -258 29 -1 c16 0 79 -1 139 -1
151 0 146 -1 147 22 2 19 -4 20 -132 20 l-133 0 -4 68 c-2 37 -2 85 0 108 l3
40 109 -1 c97 -1 109 1 113 17 3 10 2 20 -2 22 -4 3 -54 5 -111 5 -56 0 -104
2 -107 4 -3 4 -6 82 -4 145 l1 32 136 0 c120 0 135 2 130 16 -3 9 -6 19 -6 22
0 8 -288 10 -300 2z"/>
<path d="M8860 6486 c-99 -31 -139 -123 -90 -203 25 -41 51 -57 128 -78 107
-30 144 -104 83 -166 -28 -27 -38 -31 -76 -31 -49 0 -67 5 -93 27 -30 25 -62
25 -62 1 0 -16 36 -45 76 -62 111 -46 244 34 230 139 -10 74 -59 117 -154 138
-83 17 -126 81 -96 141 31 60 124 76 187 34 30 -21 38 -22 48 -10 36 43 -100
96 -181 70z"/>
<path d="M9110 6473 c0 -22 4 -23 85 -23 l85 0 0 -244 0 -243 23 4 22 4 0 227
c-1 125 1 233 3 240 3 8 29 12 83 12 75 0 79 1 79 23 l0 22 -190 0 -190 0 0
-22z"/>
<path d="M9999 6495 c0 0 -2 -10 -5 -22 -4 -22 -2 -23 81 -23 74 0 85 -2 86
-17 1 -10 1 -118 1 -240 l0 -223 23 0 22 0 1 213 c1 116 1 224 1 240 l1 27 83
0 c76 0 83 2 84 20 1 11 -1 20 -5 21 -5 0 -343 4 -373 4z"/>
<path d="M10434 6491 c-2 -2 -4 -121 -4 -263 0 -199 3 -258 13 -259 12 0 244
0 280 1 10 0 17 8 17 20 0 19 -7 20 -135 20 l-135 0 1 104 c0 70 5 106 12 109
7 2 58 3 115 2 101 -1 102 0 102 23 0 22 -3 23 -57 22 -32 -1 -84 -1 -115 -1
l-58 1 0 90 0 90 135 0 c128 0 135 1 135 20 0 14 -7 20 -22 21 -142 3 -281 3
-284 0z"/>
<path d="M10993 6492 c-35 -3 -43 -7 -43 -23 0 -17 8 -19 85 -19 74 0 85 -2
86 -17 0 -10 1 -118 1 -240 l1 -223 22 0 c23 0 23 0 23 168 1 92 1 200 1 240
l1 72 84 0 c79 0 85 1 83 20 -1 13 -9 20 -22 20 -220 4 -287 4 -322 2z"/>
<path d="M11392 6486 c-10 -17 -4 -509 7 -515 5 -3 62 -5 128 -4 183 2 173 1
173 23 0 19 -7 20 -135 20 l-135 0 1 105 c0 71 5 105 12 106 7 1 57 2 112 3
97 1 100 2 103 24 3 18 -1 23 -15 22 -10 -1 -62 -2 -116 -1 l-98 1 3 90 2 90
133 0 c126 0 133 1 133 20 0 22 12 21 -178 23 -69 1 -126 -2 -130 -7z"/>
<path d="M12203 6488 c-4 -7 -8 -127 -8 -265 0 -252 0 -253 21 -253 21 0 22 2
21 205 0 113 2 207 4 209 2 3 36 -49 74 -114 44 -75 76 -119 87 -119 11 -1 39
38 83 114 37 63 70 117 74 119 3 2 6 -84 6 -192 -1 -108 1 -204 3 -213 2 -11
11 -15 23 -12 18 5 19 18 19 264 l0 259 -23 0 c-18 0 -32 -15 -62 -67 -22 -38
-43 -75 -48 -83 -24 -48 -65 -112 -72 -113 -5 -1 -43 56 -85 127 -77 129 -102
157 -117 134z"/>
<path d="M7569 6453 c-7 -21 -14 -42 -15 -48 -2 -5 -39 -104 -82 -220 -74
-194 -79 -210 -60 -213 11 -2 22 -1 24 1 3 3 22 49 43 103 l37 99 86 3 86 3
30 -78 c17 -43 34 -91 37 -106 5 -20 13 -27 31 -27 13 0 24 3 24 7 0 8 -57
168 -70 198 -5 11 -18 45 -29 75 -79 226 -85 240 -108 240 -16 0 -25 -9 -34
-37z m70 -138 c17 -44 31 -83 31 -86 0 -4 -29 -7 -65 -7 -44 0 -65 5 -65 13 0
6 11 38 24 71 12 32 26 68 30 78 9 25 10 23 45 -69z"/>
<path d="M7851 6230 c1 -217 3 -260 15 -261 8 0 64 -1 124 -1 166 0 160 -1
160 22 0 19 -7 20 -124 20 -90 0 -125 3 -128 13 -2 6 -4 114 -3 240 l0 227
-22 0 -23 0 1 -260z"/>
<path d="M9652 6287 c-40 -111 -79 -215 -87 -232 -31 -72 -30 -97 4 -88 12 3
23 17 27 36 3 17 10 38 15 47 5 8 18 41 30 73 l21 58 86 -3 86 -3 37 -99 c21
-54 40 -100 43 -103 2 -2 13 -3 24 -1 17 3 14 17 -45 178 -131 355 -125 340
-147 340 -18 0 -31 -28 -94 -203z m131 25 c15 -40 27 -77 27 -82 0 -5 -29 -8
-65 -7 -36 1 -65 2 -65 4 0 18 64 172 70 166 4 -4 19 -41 33 -81z"/>
<path d="M11922 6463 c-6 -16 -44 -122 -86 -238 -42 -115 -81 -218 -86 -227
-14 -25 -13 -28 14 -28 21 0 28 10 52 73 14 39 33 87 40 105 l13 32 85 0 85 0
20 -55 c12 -30 30 -79 41 -109 17 -45 24 -53 40 -49 11 3 20 8 20 12 0 3 -39
110 -86 236 -47 127 -88 240 -91 253 -8 33 -48 30 -61 -5z m67 -151 c17 -46
31 -85 31 -87 0 -1 -29 -3 -65 -3 -42 0 -65 4 -65 12 0 10 8 31 49 140 7 16
13 27 16 25 2 -3 18 -42 34 -87z"/>
</g>
</svg>
